<svg width="62" height="62" viewBox="0 0 62 62" fill="none" xmlns="http://www.w3.org/2000/svg">
<path d="M31.622 23.6358C30.9267 19.6191 29.7679 18.0124 25.1327 15.8702M25.1327 15.8702C23.6443 15.6037 23.0613 15.9634 21.6563 16.6735C19.5281 18.5728 18.8897 20.0518 18.1799 23.2674C17.5956 27.823 17.8598 29.313 19.8022 31.9368C20.7035 32.5942 21.4251 33.092 22.1198 33.4415M25.1327 15.8702C28.695 17.4065 30.6229 18.0903 33.2443 17.209C37.1519 15.7607 37.9905 15.3181 40.4288 16.6735C42.5056 18.1465 44.3687 24.1713 44.137 26.8491C43.9052 29.5268 43.4074 31.1359 39.9653 34.0791C39.6438 38.3434 39.2895 40.427 38.1112 43.1835C36.4889 46.129 33.7078 46.9323 33.476 45.0579C33.2443 43.1835 33.2443 38.6313 32.7807 37.8279C32.3172 37.0246 29.7679 35.9535 29.0726 38.0957C28.3773 40.2379 28.6091 43.1835 28.6091 45.0579C28.6091 46.9323 25.1327 45.5934 24.2056 44.2546C23.2786 42.9157 22.4706 39.3131 22.1198 33.4415M24.901 34.0791C23.8165 34.084 22.9892 33.8789 22.1198 33.4415" stroke="#FAFAFA" stroke-opacity="0.980392" stroke-width="2.5" stroke-linecap="round"/>
<path d="M52.9013 21.4982C45.2532 -3.94054 9.56223 -2.33387 7.47639 30.8704M7.47639 30.8704L4 26.8538M7.47639 30.8704L11.6481 27.6571M9.09871 40.7781C17.2103 66.2169 53.3648 64.0747 54.5236 30.3348M54.5236 30.3348L50.3519 33.5482M54.5236 30.3348L58 34.0837" stroke="#6BD4CF" stroke-width="4" stroke-linecap="round"/>
</svg>
